<svg width="45" height="45" viewBox="0 0 45 45" fill="none" xmlns="http://www.w3.org/2000/svg">
<circle cx="22.5" cy="22.5" r="22.5" fill="#037E8C"/>
<g clip-path="url(#clip0_23_2931)">
<path d="M33.3801 21.0039C33.3794 21.0034 33.3789 21.0027 33.3784 21.0022L23.9962 11.6203C23.5962 11.2202 23.0646 11 22.499 11C21.9334 11 21.4017 11.2202 21.0017 11.6203L11.6244 20.9974C11.6212 21.0006 11.6179 21.0039 11.6149 21.0071C10.7937 21.833 10.7951 23.1732 11.6189 23.997C11.9953 24.3736 12.4923 24.5915 13.0238 24.6145C13.0456 24.6166 13.0673 24.6177 13.0892 24.6177H13.463V31.522C13.463 32.8884 14.5748 34 15.9413 34H19.6119C19.9841 34 20.2857 33.6982 20.2857 33.3262V27.9131C20.2857 27.2897 20.793 26.7825 21.4165 26.7825H23.5815C24.205 26.7825 24.7121 27.2897 24.7121 27.9131V33.3262C24.7121 33.6982 25.0137 34 25.3859 34H29.0565C30.4232 34 31.5348 32.8884 31.5348 31.522V24.6177H31.8815C32.4469 24.6177 32.9786 24.3974 33.3789 23.9972C34.2036 23.1721 34.204 21.8295 33.3801 21.0039ZM32.4259 23.0444C32.2804 23.1898 32.087 23.27 31.8815 23.27H30.861C30.4888 23.27 30.1871 23.5717 30.1871 23.9438V31.522C30.1871 32.1453 29.68 32.6524 29.0565 32.6524H26.0598V27.9131C26.0598 26.5467 24.9481 25.4349 23.5815 25.4349H21.4165C20.0499 25.4349 18.938 26.5467 18.938 27.9131V32.6524H15.9413C15.318 32.6524 14.8107 32.1453 14.8107 31.522V23.9438C14.8107 23.5717 14.509 23.27 14.1368 23.27H13.1338C13.1233 23.2693 13.1129 23.2688 13.1022 23.2686C12.9015 23.2651 12.7132 23.1854 12.5721 23.0442C12.2721 22.7441 12.2721 22.2558 12.5721 21.9555C12.5723 21.9555 12.5723 21.9553 12.5725 21.9552L12.573 21.9546L21.9548 12.5731C22.1001 12.4277 22.2933 12.3477 22.499 12.3477C22.7045 12.3477 22.8977 12.4277 23.0431 12.5731L32.4229 21.9527C32.4243 21.9541 32.4259 21.9555 32.4273 21.9569C32.7258 22.2575 32.7252 22.7448 32.4259 23.0444Z" fill="white"/>
</g>
<defs>
<clipPath id="clip0_23_2931">
<rect width="23" height="23" fill="white" transform="translate(11 11)"/>
</clipPath>
</defs>
</svg>
